<svg version="1.1" id="Layer_1" xmlns="http://www.w3.org/2000/svg" xmlns:xlink="http://www.w3.org/1999/xlink" x="0px" y="0px"
	 width="100%" viewBox="0 0 1024 1024" enable-background="new 0 0 1024 1024" xml:space="preserve">
<path fill="#000000" opacity="1.000000" stroke="none" 
	d="
M416.103516,542.279297 
	C415.244293,549.651367 414.024933,556.522034 411.721252,563.170593 
	C410.551575,566.546326 408.859039,569.568542 406.055054,571.834717 
	C403.134003,574.195435 399.903381,575.261353 396.358093,573.285706 
	C392.854828,571.333496 391.853149,568.052490 392.281006,564.325684 
	C393.195343,556.360901 397.407928,550.023132 402.501068,544.141479 
	C407.921143,537.882202 408.065674,527.801270 402.706024,520.855774 
	C399.309204,522.012390 397.772125,525.029236 396.181305,527.852661 
	C389.857941,539.075684 388.202911,551.357117 388.245728,563.993042 
	C388.258698,567.823975 388.296600,571.655396 388.376221,575.485474 
	C388.416626,577.431702 389.200409,579.668152 386.468811,580.468140 
	C383.899170,581.220581 381.474457,580.949707 379.657990,578.733276 
	C377.153595,575.677429 375.998840,571.987000 375.334717,568.209961 
	C374.512207,563.532104 374.052704,558.790405 373.388000,553.706116 
	C372.375702,555.574890 371.577087,557.175293 370.666351,558.709045 
	C366.377960,565.931091 357.847931,566.419189 352.608398,559.707520 
	C348.113831,553.950134 346.756256,546.970337 346.004089,540.058105 
	C343.278351,515.010620 345.905609,490.583710 355.648285,467.148712 
	C356.932251,464.060211 358.548401,461.116730 360.904419,458.710236 
	C365.424805,454.092834 371.374146,455.666534 373.230255,461.877289 
	C374.725891,466.881958 373.757629,471.811676 372.599457,476.657227 
	C369.631470,489.074890 364.599121,500.628662 357.509125,511.264038 
	C356.581451,512.655640 355.475159,514.000122 355.430084,515.730957 
	C355.117645,527.731445 354.964294,539.739136 358.950562,551.294861 
	C359.835602,553.860535 360.399017,557.431702 363.821167,557.558350 
	C367.591827,557.697815 368.113312,553.858154 369.286102,551.258789 
	C373.074677,542.861816 373.430969,533.838562 373.613312,524.838623 
	C373.881256,511.613617 375.628448,498.635773 379.611298,485.995392 
	C381.383881,480.369781 383.839294,475.101562 388.223480,471.001373 
	C390.732727,468.654694 393.606964,466.829254 397.234772,468.315826 
	C400.794373,469.774445 400.485016,473.063721 400.311798,476.036713 
	C399.523407,489.571838 395.883209,502.483002 388.841736,513.911255 
	C383.973877,521.811707 382.364899,529.701111 383.693817,539.344604 
	C385.742065,533.290344 387.927734,527.944702 391.062225,523.063660 
	C393.581818,519.140259 396.706360,516.089783 401.507141,515.196167 
	C408.077393,513.973206 413.582642,518.298523 415.148132,525.996643 
	C415.605286,528.244568 415.328705,530.673828 416.807983,532.691895 
	C422.522491,531.968811 426.595490,530.161499 427.234924,523.226685 
	C427.768005,517.445068 430.468109,512.043518 434.639435,507.683014 
	C437.646088,504.540070 441.253998,502.636780 445.726746,502.849915 
	C450.482361,503.076508 453.746613,505.727600 454.164886,510.451904 
	C455.019836,520.108459 452.609039,528.983826 446.536285,536.648987 
	C444.062317,539.771729 440.599365,541.394165 436.645721,541.592957 
	C435.847748,547.480164 437.862549,552.039124 442.100708,553.842712 
	C447.098907,555.969788 450.442688,553.039612 453.317322,549.655151 
	C458.719208,543.295288 462.720490,536.391602 461.709839,527.465515 
	C461.127716,522.324097 462.016235,517.162537 462.782349,512.060486 
	C463.024567,510.447235 463.513153,508.761353 464.332794,507.370148 
	C465.547516,505.308319 467.593140,504.602905 469.955109,505.256348 
	C472.219910,505.882904 472.418182,507.704498 472.324615,509.633575 
	C472.100861,514.247375 471.861603,518.860474 471.564026,524.752930 
	C474.158112,519.679077 475.523102,515.354553 478.458496,511.949585 
	C481.012146,508.987427 483.885559,505.966400 488.200012,507.353027 
	C492.790649,508.828400 493.232178,513.062866 493.351715,517.201904 
	C493.517792,522.951538 492.060913,528.094604 487.649139,532.055542 
	C486.006683,533.530151 484.062439,534.650452 481.743286,534.114746 
	C479.470520,533.589844 477.907440,532.138611 477.457367,529.750732 
	C477.190735,528.335999 477.488495,526.961060 478.880890,526.341919 
	C481.533630,525.162476 481.937225,528.075745 483.413757,529.551392 
	C486.447144,525.927185 486.485046,521.960632 486.461121,518.033081 
	C486.454132,516.886658 485.863251,515.679016 484.522400,515.405518 
	C482.550354,515.003357 481.400543,516.349548 480.472778,517.743896 
	C476.225525,524.127380 474.480072,531.357178 473.253754,538.811584 
	C472.082947,545.928894 472.251160,553.075195 472.244659,560.227112 
	C472.242035,563.122009 471.818359,565.864929 468.195770,565.852112 
	C465.143707,565.841370 462.722687,564.637085 462.515045,560.921204 
	C462.249084,556.161194 461.774628,551.412842 461.325928,545.867310 
	C455.752808,554.247314 450.651184,562.836792 439.329010,560.540039 
	C425.705811,557.776428 426.293427,546.054932 425.143097,535.282288 
	C420.809601,536.260071 416.796143,536.654297 416.103516,542.279297 
M443.998718,530.452332 
	C447.054352,524.722351 448.225647,518.600464 447.775604,512.149963 
	C447.659454,510.484985 447.640503,508.559967 445.635010,508.081329 
	C443.722961,507.624969 442.516968,509.164276 441.679840,510.557159 
	C440.403107,512.681335 439.162872,514.900269 438.386169,517.238098 
	C436.263702,523.626648 434.997192,530.154663 435.848175,536.989746 
	C440.714905,537.234253 441.917877,533.835083 443.998718,530.452332 
M364.239563,468.740540 
	C360.585480,479.265137 358.527435,490.119354 357.765320,501.262909 
	C363.751312,488.892029 370.227020,476.663361 369.535553,461.312622 
	C365.898926,463.239624 365.647339,465.946167 364.239563,468.740540 
M390.532562,482.098022 
	C387.948273,490.603149 385.417603,499.118103 385.750671,508.177094 
	C391.249420,497.985657 393.901978,487.073120 394.382599,475.044342 
	C392.367432,477.087708 391.655640,479.275848 390.532562,482.098022 
M399.571167,566.324524 
	C403.735535,562.318604 403.884949,557.018433 404.368500,551.821655 
	C400.844208,555.838989 398.808472,560.373291 399.571167,566.324524 
z"/>
<path fill="#000000" opacity="1.000000" stroke="none" 
	d="
M583.838989,563.551392 
	C582.943115,549.101074 584.312195,535.489197 590.912109,522.812927 
	C593.115662,518.580566 596.013245,514.948486 600.554504,513.068298 
	C606.341797,510.672241 611.214417,512.815491 612.450867,518.901855 
	C614.670654,529.828491 611.365417,539.982666 606.836365,549.755981 
	C605.883301,551.812622 603.564270,553.073059 601.338013,551.837524 
	C598.628113,550.333557 600.809143,548.288940 601.555237,546.696167 
	C605.057007,539.221558 607.270874,531.434204 607.612671,523.170532 
	C607.699707,521.063721 608.001892,518.782227 605.833191,517.150330 
	C603.048035,517.374390 602.112000,519.757629 601.137451,521.711304 
	C593.895813,536.229431 591.358765,551.709595 592.585449,567.767334 
	C592.845276,571.168884 593.108582,575.913208 597.698608,576.516602 
	C601.848633,577.062256 603.407043,572.972900 604.939697,569.923950 
	C612.260864,555.359436 615.735107,539.531250 619.618774,523.866516 
	C624.782654,503.038055 630.061768,482.218811 631.052612,460.619476 
	C631.205872,457.278442 631.608521,453.729431 636.389526,453.674011 
	C641.281494,453.617310 641.692993,457.126556 642.368347,460.704773 
	C644.023804,469.476440 643.153259,478.313904 643.267151,487.124054 
	C643.346802,493.284302 643.282532,499.446411 643.960632,505.788483 
	C646.562256,496.502380 649.212585,487.229614 651.752075,477.926575 
	C654.382507,468.290741 656.868103,458.610748 660.918213,449.437958 
	C661.721802,447.617828 662.593872,445.770935 663.769775,444.185059 
	C665.686951,441.599335 668.542908,441.140564 671.423096,442.011017 
	C674.269165,442.871185 673.527100,445.432068 673.371338,447.520752 
	C671.303955,475.248322 668.692200,502.939362 668.972656,530.799988 
	C669.110291,544.470703 669.449158,558.104675 671.232422,571.676270 
	C671.801208,576.005066 672.862793,580.171692 674.733826,584.115295 
	C676.198303,587.201843 677.673584,590.115356 682.104675,589.200806 
	C683.681152,588.875488 685.683716,589.659363 685.788940,591.713989 
	C685.881714,593.526062 684.060913,593.898865 682.644653,594.396301 
	C676.119873,596.687744 669.216736,594.032532 665.726257,587.465698 
	C661.582092,579.668884 660.404785,571.011047 659.733398,562.397461 
	C657.606812,535.112427 658.330322,507.834198 660.580872,480.581451 
	C660.700806,479.128510 660.596313,477.657043 660.133850,476.068909 
	C656.536926,488.324707 652.987061,500.594666 649.308044,512.825806 
	C648.449646,515.679688 647.422058,518.551453 645.980042,521.140930 
	C644.634705,523.556824 642.250854,525.080017 639.306458,524.634644 
	C636.417603,524.197510 636.146912,521.657532 635.588440,519.352966 
	C633.605896,511.171112 633.636169,502.858185 633.689575,494.487823 
	C630.372498,508.659241 627.418091,522.915894 623.269470,536.861206 
	C619.998840,547.855103 617.633911,559.174255 612.372864,569.497498 
	C610.412598,573.344055 608.412537,577.200073 604.247925,579.321167 
	C597.099365,582.962097 590.072693,580.825012 586.752747,573.533325 
	C585.391541,570.543823 584.827637,567.191345 583.838989,563.551392 
z"/>
<path fill="#000000" opacity="1.000000" stroke="none" 
	d="
M244.534027,562.632019 
	C244.248444,548.553894 247.200958,535.783508 254.889709,524.291687 
	C257.820099,519.911926 261.704681,517.011169 266.983398,516.254333 
	C273.025177,515.388000 277.858276,518.752197 279.249756,524.677551 
	C279.513977,525.802612 279.757172,526.932800 280.031433,528.055359 
	C280.066071,528.197205 280.231201,528.307190 280.498138,528.625305 
	C284.430817,527.279053 288.458099,525.908081 292.479706,524.520752 
	C294.739929,523.741089 295.005493,521.577698 295.664917,519.745239 
	C303.220520,498.748230 309.905457,477.476410 315.726410,455.933472 
	C316.073547,454.648651 316.464050,453.375031 316.786865,452.084290 
	C317.696320,448.448090 320.256226,447.314178 323.611023,447.904480 
	C327.133728,448.524231 327.089783,451.116394 326.868011,454.053986 
	C325.427246,473.139771 323.514709,492.206726 324.034424,511.389404 
	C324.074097,512.854004 324.262604,514.314575 324.425903,516.315674 
	C330.328796,514.099121 332.185425,509.489594 333.462158,504.482422 
	C333.745575,503.370941 333.592407,502.155670 333.755859,501.004578 
	C334.135254,498.332336 334.439575,495.192383 337.963562,495.230835 
	C341.786713,495.272552 343.324097,498.060486 343.583710,501.627106 
	C344.185486,509.894592 338.261536,518.815247 328.815643,522.846436 
	C325.239380,524.372681 324.019501,526.356812 324.413696,530.034363 
	C325.886566,543.775146 327.683228,557.435181 332.464417,570.519592 
	C333.847290,574.303955 335.499298,577.894653 338.122894,581.005066 
	C343.108856,586.916199 348.111603,586.820068 353.026886,580.890381 
	C354.492523,579.122192 355.534729,574.763977 358.744232,577.506897 
	C361.407257,579.782776 358.697388,582.790649 357.039612,584.949707 
	C350.128174,593.950806 336.199951,593.033264 328.584259,583.108643 
	C321.966034,574.483765 319.971008,564.101624 317.812134,553.830994 
	C316.236969,546.337463 315.157745,538.751038 314.707703,531.099121 
	C314.546387,528.356628 313.506775,527.029053 310.645721,527.659790 
	C310.483032,527.695679 310.319763,527.771851 310.158813,527.766479 
	C301.710114,527.488159 296.921722,531.130676 293.749817,539.440125 
	C288.999939,551.883301 282.021973,563.349854 272.680145,573.132263 
	C270.706757,575.198730 268.555176,577.004456 265.925476,578.189575 
	C256.537262,582.420410 247.982681,578.413879 245.348267,568.467590 
	C244.884018,566.714844 244.809143,564.859070 244.534027,562.632019 
M270.800629,536.339172 
	C271.309113,534.237000 271.883209,532.148071 272.308960,530.029297 
	C272.807526,527.547852 273.390472,524.664734 270.748627,523.266357 
	C267.858246,521.736389 265.968567,524.349609 264.664246,526.299255 
	C256.704315,538.197388 252.924774,551.299072 254.938889,565.601501 
	C256.177826,574.399109 260.695892,576.155029 267.479187,570.383850 
	C279.253052,560.366882 284.394745,546.236572 290.901489,531.828857 
	C283.782196,534.670776 278.830750,538.453491 274.905609,543.596313 
	C273.287842,545.715881 271.541718,547.375732 268.463379,545.645569 
	C268.188721,542.573914 269.940887,539.968079 270.800629,536.339172 
M313.765747,517.027771 
	C313.684753,505.326996 313.611908,493.626312 313.894012,481.848602 
	C309.786285,495.218658 305.678589,508.588715 301.537384,522.067749 
	C309.070679,522.811218 312.134155,521.697266 313.765747,517.027771 
z"/>
<path fill="#000000" opacity="1.000000" stroke="none" 
	d="
M705.546143,510.021271 
	C708.026733,511.556488 707.410095,513.662537 707.359375,515.619446 
	C707.096252,525.763611 705.955627,535.903198 707.164124,546.054810 
	C707.390686,547.958008 707.001587,550.058228 709.091492,551.989807 
	C713.702209,544.951355 717.271179,537.606445 717.478271,529.352417 
	C717.618042,523.780640 719.914246,517.814636 715.836792,512.453613 
	C714.909485,511.234406 716.425659,510.093689 717.895630,509.765442 
	C721.380310,508.987213 724.864014,509.299377 728.308716,509.952301 
	C729.682678,510.212646 731.106750,511.191986 730.269226,512.749390 
	C726.257690,520.208679 728.531250,528.386414 727.501526,536.177734 
	C726.789062,541.567871 726.829895,547.155334 728.204407,552.581726 
	C728.697937,554.530090 728.865601,556.885437 731.136719,557.378357 
	C733.782288,557.952454 734.801697,555.500305 735.908997,553.719238 
	C737.885925,550.539185 738.725708,547.056824 738.650085,543.253418 
	C738.454834,533.432800 740.468018,524.017883 744.820618,515.217285 
	C749.127808,506.508270 754.477905,505.880737 763.689880,508.471039 
	C770.975342,510.519623 770.922791,514.033997 770.424927,519.734863 
	C769.613464,529.025452 769.789429,538.371643 770.438599,547.686218 
	C770.528625,548.977966 771.106995,550.235657 771.726501,552.475159 
	C778.506531,543.776123 779.906311,533.704895 782.499146,524.319580 
	C785.522034,524.818665 785.176453,526.459595 784.947144,527.898865 
	C783.662170,535.964111 782.150940,543.983154 779.118958,551.615112 
	C777.348328,556.072205 775.268555,560.398071 769.511536,560.386963 
	C763.953796,560.376343 761.919800,556.358154 760.367615,551.264526 
	C757.628906,555.476685 756.314453,560.512451 751.116394,561.947693 
	C745.604553,563.469604 742.414978,560.126099 739.491272,555.963013 
	C735.635437,560.314514 732.085999,565.146545 725.556335,562.723755 
	C719.283020,560.395935 718.253784,554.636169 717.339417,548.211243 
	C714.486572,553.765381 713.295593,560.583496 705.632935,560.324341 
	C700.312927,560.144287 698.611450,555.965271 697.222473,550.881287 
	C695.636719,553.550415 694.420227,555.745850 693.062073,557.849792 
	C690.992737,561.055359 688.075378,562.755676 684.182434,562.173096 
	C680.316528,561.594482 677.906738,559.142212 676.792297,555.541748 
	C673.938538,546.322693 675.064087,537.087830 677.166931,527.942749 
	C678.398254,522.587830 680.056885,517.316650 683.068726,512.628113 
	C686.991516,506.521454 693.133789,504.836151 699.475342,508.344147 
	C701.346008,509.378937 703.252686,509.478149 705.546143,510.021271 
M753.356445,519.921265 
	C749.378235,530.477478 746.748047,541.162415 749.903625,553.536499 
	C755.597595,542.277283 757.574036,531.164551 759.318726,520.010376 
	C759.660583,517.824707 758.648804,515.914856 756.513306,514.929565 
	C754.810059,516.122314 754.486023,517.851624 753.356445,519.921265 
M693.755066,532.333069 
	C694.336731,526.575439 698.031433,520.763000 693.187317,513.837463 
	C686.616211,526.616394 683.864563,538.868164 686.485596,553.278381 
	C690.427490,546.294312 691.783752,539.638367 693.755066,532.333069 
z"/>
<path fill="#000000" opacity="1.000000" stroke="none" 
	d="
M522.344604,534.571655 
	C522.470825,529.048828 521.621521,523.945068 523.624390,518.915710 
	C526.357544,512.052490 531.505798,506.734039 536.470276,507.127625 
	C543.543030,507.688293 546.959839,512.772095 549.474976,518.727722 
	C551.664124,523.911438 551.207397,529.451477 551.451965,535.080750 
	C557.422363,535.051453 558.027100,529.538635 561.843445,525.452820 
	C562.433899,531.317993 560.637024,535.092834 556.992798,536.966248 
	C551.649475,539.713257 549.427368,543.851929 548.490540,549.391174 
	C547.965698,552.494202 546.595215,555.412537 544.820312,558.078430 
	C540.298706,564.869507 532.648987,565.050720 528.025208,558.279114 
	C526.272705,555.712524 525.133606,552.727173 523.690430,549.884460 
	C522.433960,552.728638 521.369934,555.648682 519.905762,558.351929 
	C516.102478,565.374268 508.475922,566.299744 502.957336,560.439941 
	C498.007416,555.183838 496.657013,548.393494 495.762268,541.637085 
	C493.517578,524.687073 494.340332,507.805573 497.626373,491.026642 
	C497.935120,489.449982 498.784119,487.861725 498.125671,486.040619 
	C496.199371,484.156616 493.214600,486.155670 491.063599,484.276001 
	C491.024445,480.972382 493.542908,480.616455 495.802063,480.755402 
	C499.421570,480.977966 500.721863,479.082886 501.657745,476.020935 
	C503.214203,470.928864 505.043488,465.908234 508.273651,461.562042 
	C509.580627,459.803558 511.026398,458.158234 513.339050,457.785828 
	C514.827026,457.546204 516.408264,457.438293 517.477051,458.812012 
	C518.596191,460.250488 517.289429,461.259247 516.655151,462.351105 
	C513.374695,467.997986 511.513794,474.108765 510.239746,480.504456 
	C515.345825,482.681335 520.044861,481.076233 524.819580,480.356018 
	C526.484070,484.299103 524.553467,485.946533 521.275574,486.261078 
	C518.313049,486.545349 515.290222,486.298737 512.299683,486.161591 
	C509.942474,486.053497 508.657623,486.814850 508.210052,489.360168 
	C504.965881,507.809357 503.382202,526.308411 506.430481,544.937561 
	C506.881256,547.692261 507.970673,550.368958 508.986328,552.996033 
	C509.757172,554.989807 510.641174,557.382996 513.164795,557.456726 
	C516.023010,557.540100 516.795471,554.861755 517.699768,552.783142 
	C520.168823,547.107971 521.954102,541.231995 522.344604,534.571655 
M542.752258,526.718811 
	C542.728760,522.701477 542.155212,518.778015 540.459839,515.106750 
	C539.697266,513.455383 538.796265,511.620911 536.666931,511.579376 
	C534.550354,511.538086 533.485840,513.313843 532.708679,514.928894 
	C529.938965,520.684692 528.009583,526.368225 531.138306,532.894531 
	C533.182068,537.157837 536.751709,537.548035 540.176392,537.431335 
	C544.363831,537.288635 542.217773,533.390259 542.732605,531.120117 
	C542.982910,530.016479 542.770081,528.807861 542.752258,526.718811 
M539.104248,543.288391 
	C536.996399,543.436401 534.857422,542.438049 532.660583,543.403809 
	C531.702942,547.221741 533.016907,550.646057 534.378296,554.020081 
	C534.942078,555.417358 535.848755,556.822021 537.763123,556.035278 
	C540.513916,554.904907 541.965698,545.992249 539.104248,543.288391 
z"/>
<path fill="#000000" opacity="1.000000" stroke="none" 
	d="
M718.247803,502.594482 
	C717.992493,498.740936 720.779175,498.357361 723.142456,497.876129 
	C725.858398,497.323120 728.591919,497.850128 730.481750,500.029877 
	C732.014221,501.797302 731.249756,503.501312 729.311035,504.535004 
	C725.320251,506.662750 721.638367,506.265686 718.247803,502.594482 
z"/>
</svg>