<?xml version="1.0" standalone="no"?><svg xmlns="http://www.w3.org/2000/svg" viewBox="0 0 1440 320"><path fill="#b6f829" fill-opacity="1" d="M0,160L21.8,154.7C43.6,149,87,139,131,138.7C174.5,139,218,149,262,144C305.5,139,349,117,393,90.7C436.4,64,480,32,524,26.7C567.3,21,611,43,655,48C698.2,53,742,43,785,37.3C829.1,32,873,32,916,80C960,128,1004,224,1047,234.7C1090.9,245,1135,171,1178,144C1221.8,117,1265,139,1309,144C1352.7,149,1396,139,1418,133.3L1440,128L1440,0L1418.2,0C1396.4,0,1353,0,1309,0C1265.5,0,1222,0,1178,0C1134.5,0,1091,0,1047,0C1003.6,0,960,0,916,0C872.7,0,829,0,785,0C741.8,0,698,0,655,0C610.9,0,567,0,524,0C480,0,436,0,393,0C349.1,0,305,0,262,0C218.2,0,175,0,131,0C87.3,0,44,0,22,0L0,0Z"></path></svg>